# xmcd
#
# Track frame offsets: 
#        150
#        9715
#        21132
#        31469
#        38943
#        50046
#        60097
#        73472
#        85838
#        94228
#        101927
#        112398
#        123162
#        135164
#        151789
#        161988
#        172838
#        181925
#        194614
#
# Disc length: 2758 seconds
#
# Revision: 0
# Processed by: cddbd v1.5.1PL0 Copyright (c) Steve Scherf et al.
# Submitted via: ExactAudioCopy v0.95a3
#
DISCID=060ac413
DTITLE=Delmer Holland and The Blue Creek Ramblers - Keeping the Tradit
DTITLE=ion Alive
DYEAR=2002
DGENRE=Bluegrass
TTITLE0=Buffalo Gals
TTITLE1=Big Ball in Brooklyn
TTITLE2=Girl I Left Behind
TTITLE3=Rattlesnake Bit the Baby
TTITLE4=Home Sweet Home
TTITLE5=Walking in My Sleep
TTITLE6=Over the Waves
TTITLE7=More Pretty Girls than One
TTITLE8=John Henry
TTITLE9=Blue Creek Stomp
TTITLE10=Roll Down that Line
TTITLE11=Sally Goodin
TTITLE12=Faded Love
TTITLE13=Angeline the Baker
TTITLE14=Twinkle Little Star
TTITLE15=Nobody's Business
TTITLE16=Third Party
TTITLE17=The Greenville Trestle
TTITLE18=Sail Away Ladies
EXTD=
EXTT0=
EXTT1=
EXTT2=
EXTT3=
EXTT4=
EXTT5=
EXTT6=
EXTT7=
EXTT8=
EXTT9=
EXTT10=
EXTT11=
EXTT12=
EXTT13=
EXTT14=
EXTT15=
EXTT16=
EXTT17=
EXTT18=
PLAYORDER=
